<?xml version="1.0" encoding="UTF-8" standalone="no"?>
<!-- Created with Inkscape (http://www.inkscape.org/) -->

<svg
   width="22.995346mm"
   height="22.995348mm"
   viewBox="0 0 22.995346 22.995348"
   version="1.1"
   id="svg1"
   inkscape:version="1.3.2 (091e20e, 2023-11-25, custom)"
   sodipodi:docname="App.svg"
   xmlns:inkscape="http://www.inkscape.org/namespaces/inkscape"
   xmlns:sodipodi="http://sodipodi.sourceforge.net/DTD/sodipodi-0.dtd"
   xmlns="http://www.w3.org/2000/svg"
   xmlns:svg="http://www.w3.org/2000/svg">
  <sodipodi:namedview
     id="namedview1"
     pagecolor="#ffffff"
     bordercolor="#cccccc"
     borderopacity="1"
     inkscape:showpageshadow="0"
     inkscape:pageopacity="1"
     inkscape:pagecheckerboard="0"
     inkscape:deskcolor="#d1d1d1"
     inkscape:document-units="mm"
     inkscape:zoom="4.1020923"
     inkscape:cx="-9.7511214"
     inkscape:cy="69.964296"
     inkscape:window-width="1920"
     inkscape:window-height="1010"
     inkscape:window-x="-6"
     inkscape:window-y="-6"
     inkscape:window-maximized="1"
     inkscape:current-layer="layer1" />
  <defs
     id="defs1" />
  <g
     inkscape:label="Layer 1"
     inkscape:groupmode="layer"
     id="layer1"
     transform="translate(-66.289826,-109.41691)">
    <g
       id="g1"
       transform="rotate(-45,77.7875,120.91458)">
      <path
         fill="#ffcc4d"
         d="m 77.7875,116.15208 c 0,2.63022 -2.132277,4.7625 -4.7625,4.7625 -2.630223,0 -4.7625,-2.13228 -4.7625,-4.7625 0,-2.63022 2.132277,-4.7625 4.7625,-4.7625 2.630223,0 4.7625,2.13228 4.7625,4.7625"
         id="path1"
         style="stroke-width:0.264583" />
      <path
         fill="#ffcc4d"
         d="m 87.3125,116.15208 c 0,2.63022 -2.132277,4.7625 -4.7625,4.7625 -2.630223,0 -4.7625,-2.13228 -4.7625,-4.7625 0,-2.63022 2.132277,-4.7625 4.7625,-4.7625 2.630223,0 4.7625,2.13228 4.7625,4.7625"
         id="path1-2"
         style="stroke-width:0.264583" />
      <path
         fill="#ffcc4d"
         d="m 77.7875,125.67708 c 0,2.63022 -2.132277,4.7625 -4.7625,4.7625 -2.630223,0 -4.7625,-2.13228 -4.7625,-4.7625 0,-2.63022 2.132277,-4.7625 4.7625,-4.7625 2.630223,0 4.7625,2.13228 4.7625,4.7625"
         id="path1-3"
         style="stroke-width:0.264583" />
      <path
         fill="#ffcc4d"
         d="m 87.3125,125.67708 c 0,2.63022 -2.13228,4.7625 -4.7625,4.7625 -2.63022,0 -4.7625,-2.13228 -4.7625,-4.7625 0,-2.63022 2.13228,-4.7625 4.7625,-4.7625 2.63022,0 4.7625,2.13228 4.7625,4.7625"
         id="path1-5"
         style="stroke-width:0.264583" />
    </g>
  </g>
</svg>
